<?xml version="1.0" standalone="no"?>
<!DOCTYPE svg PUBLIC "-//W3C//DTD SVG 20010904//EN"
 "http://www.w3.org/TR/2001/REC-SVG-20010904/DTD/svg10.dtd">
<svg version="1.0" xmlns="http://www.w3.org/2000/svg"
 width="600.000000pt" height="600.000000pt" viewBox="0 0 600.000000 600.000000"
 preserveAspectRatio="xMidYMid meet">
<metadata>
Created by potrace 1.14, written by Peter Selinger 2001-2017
</metadata>
<g transform="translate(0.000000,600.000000) scale(0.100000,-0.100000)"
fill="#000000" stroke="none">
<path d="M2798 5995 c-1 -1 -34 -5 -73 -8 -62 -5 -133 -15 -245 -33 -19 -3
-84 -16 -145 -30 -60 -14 -119 -27 -129 -29 -11 -3 -63 -19 -115 -36 -489
-161 -883 -405 -1236 -764 -103 -105 -136 -142 -185 -205 -19 -25 -39 -50 -45
-56 -5 -6 -16 -20 -23 -30 -7 -11 -35 -50 -63 -89 -27 -38 -64 -94 -82 -124
-18 -29 -40 -67 -51 -85 -10 -17 -37 -67 -61 -111 -37 -70 -62 -124 -135 -290
-26 -57 -106 -315 -129 -415 -58 -248 -76 -413 -76 -700 1 -207 8 -326 29
-440 2 -8 6 -37 10 -65 27 -175 110 -454 193 -650 155 -367 360 -671 643 -955
342 -342 751 -592 1212 -738 113 -37 295 -82 388 -96 89 -15 173 -26 236 -33
90 -10 434 -10 549 -1 79 7 295 38 350 51 11 3 52 13 90 22 39 9 79 18 91 21
50 9 293 98 411 149 452 195 882 534 1177 925 31 41 61 81 67 88 34 41 157
247 216 362 130 252 244 582 279 804 3 21 8 48 10 60 3 11 7 39 10 61 3 22 7
49 9 61 26 125 27 621 1 764 -3 14 -7 43 -10 65 -25 198 -102 478 -194 700
-199 484 -543 931 -952 1239 -41 31 -79 60 -85 64 -78 61 -270 174 -419 246
-292 143 -588 233 -906 276 -41 6 -88 13 -105 16 -32 6 -501 15 -507 9z m-188
-2042 l0 -746 33 38 c47 57 77 86 127 126 146 116 282 159 505 159 149 0 220
-14 324 -62 60 -28 72 -35 106 -65 7 -7 18 -13 23 -13 5 0 12 -9 15 -21 3 -12
10 -18 16 -14 6 3 11 1 11 -5 0 -7 13 -29 28 -49 16 -20 39 -57 51 -83 21 -43
51 -65 51 -37 0 18 163 174 227 217 141 95 272 132 471 132 153 0 242 -18 340
-67 68 -33 90 -51 159 -121 86 -88 133 -218 133 -370 0 -42 4 -83 9 -91 5 -7
5 -28 1 -47 -4 -19 -4 -36 1 -39 4 -3 5 -16 0 -28 -5 -12 -5 -31 -1 -42 4 -11
4 -34 -1 -52 -4 -18 -3 -35 2 -38 4 -3 5 -16 0 -28 -5 -12 -5 -31 -1 -42 4
-11 4 -34 -1 -52 -4 -18 -3 -35 2 -38 4 -3 5 -16 0 -28 -5 -12 -5 -31 -1 -42
4 -11 4 -34 -1 -52 -4 -18 -3 -35 2 -38 4 -3 5 -16 0 -28 -5 -12 -5 -31 -1
-42 4 -11 4 -34 -1 -52 -4 -18 -3 -35 2 -38 4 -3 5 -16 0 -28 -5 -12 -5 -31
-1 -42 4 -11 4 -34 -1 -52 -4 -18 -3 -35 2 -38 4 -3 5 -16 0 -28 -5 -12 -5
-31 -1 -42 4 -11 4 -34 -1 -52 -4 -18 -3 -35 2 -38 4 -3 5 -16 0 -28 -5 -12
-5 -31 -1 -42 4 -11 4 -34 -1 -52 -4 -18 -3 -35 2 -38 4 -3 5 -16 0 -28 -5
-12 -5 -31 -1 -42 4 -11 4 -34 0 -52 -4 -18 -5 -34 -2 -37 2 -3 -9 -1 -27 4
-17 5 -31 5 -31 0 0 -5 -13 -5 -30 0 -17 5 -30 5 -30 0 0 -5 -13 -5 -30 0 -17
5 -30 5 -30 0 0 -5 -13 -5 -30 0 -17 5 -30 5 -30 0 0 -5 -13 -5 -30 0 -16 5
-30 5 -30 0 0 -4 -12 -5 -27 -1 -16 4 -40 4 -55 0 -16 -4 -28 -4 -28 0 0 4
-10 7 -22 7 l-23 -1 -6 620 c-3 341 -9 636 -13 655 -37 177 -50 207 -110 265
-62 59 -131 78 -271 72 -155 -5 -220 -27 -295 -98 -29 -27 -90 -115 -90 -130
0 -5 -4 -17 -10 -27 -22 -39 -42 -157 -56 -322 -7 -96 -15 -184 -16 -195 -1
-11 1 -26 5 -32 5 -8 3 -13 -3 -13 -6 0 -8 -5 -5 -11 6 -9 8 -56 4 -119 0 -8
0 -26 0 -40 1 -14 1 -48 0 -77 0 -29 2 -57 6 -63 3 -5 1 -10 -5 -10 -6 0 -8
-5 -5 -11 4 -6 7 -34 6 -62 -1 -29 -1 -74 -1 -102 1 -27 1 -57 0 -65 0 -8 0
-26 1 -40 1 -26 1 -43 -2 -129 -1 -27 1 -54 5 -60 5 -7 -2 -11 -16 -11 -13 1
-47 0 -76 -1 -29 -1 -55 1 -59 4 -3 4 -13 2 -22 -3 -10 -5 -23 -5 -31 0 -7 4
-24 4 -36 0 -14 -6 -26 -5 -29 0 -3 5 -18 5 -35 0 -17 -5 -30 -5 -30 0 0 4
-15 5 -32 1 -18 -4 -44 -5 -58 -1 l-25 6 -6 584 c-7 672 -14 749 -80 881 -17
34 -103 120 -118 117 -3 -1 -24 6 -46 16 -65 28 -239 19 -327 -17 -94 -39
-180 -113 -213 -183 -9 -19 -20 -34 -25 -34 -6 0 -10 -9 -10 -20 0 -11 -3 -20
-7 -20 -5 0 -9 -12 -10 -27 -1 -16 -6 -59 -12 -98 -6 -40 -10 -315 -10 -638
l-1 -568 -45 2 c-24 2 -47 0 -51 -3 -3 -3 -19 -2 -35 2 -16 5 -31 5 -34 0 -3
-4 -20 -4 -39 0 -19 4 -40 4 -46 0 -7 -4 -26 -4 -41 0 -16 5 -31 5 -34 0 -3
-4 -20 -4 -39 0 -19 4 -39 4 -46 0 -7 -4 -21 -5 -31 -3 -17 5 -19 16 -19 115
l0 110 -71 -76 c-39 -42 -77 -76 -85 -76 -8 0 -14 -6 -14 -12 -1 -7 -24 -24
-53 -38 -29 -13 -59 -29 -67 -35 -18 -14 -138 -51 -195 -61 -40 -6 -57 -7
-105 -5 -14 1 -32 1 -40 1 -8 -1 -37 0 -65 1 -27 1 -54 0 -60 -2 -30 -9 -215
46 -292 88 -27 14 -60 32 -74 40 -33 17 -156 135 -196 188 -73 97 -137 243
-167 381 -9 43 -21 91 -25 105 -5 15 -5 32 -1 39 4 7 3 31 -2 54 -5 22 -7 109
-5 191 6 166 12 234 28 281 5 18 9 36 8 40 -2 10 5 31 27 82 8 18 14 37 14 42
0 17 61 140 69 140 5 0 12 11 15 25 4 14 11 25 17 25 6 0 8 4 5 9 -7 11 121
148 186 199 59 45 183 112 208 112 9 0 20 4 26 9 5 5 53 16 107 26 111 19 318
18 324 -2 2 -6 13 -9 23 -6 25 7 106 -19 196 -62 64 -31 194 -137 194 -159 0
-5 6 -14 14 -20 8 -6 24 -29 36 -51 l21 -40 -1 35 c-1 19 -2 362 -1 763 l1
727 230 0 230 0 0 -747z"/>
<path d="M1560 3118 c-14 -5 -33 -7 -42 -4 -10 2 -18 0 -18 -5 0 -5 -7 -9 -15
-9 -9 0 -45 -13 -81 -30 -123 -55 -224 -185 -269 -346 -19 -64 -33 -360 -20
-391 5 -10 7 -26 6 -35 -3 -23 28 -128 46 -156 8 -13 12 -30 9 -38 -3 -8 -2
-14 3 -14 5 0 20 -17 33 -38 56 -83 127 -140 223 -178 41 -16 75 -19 195 -19
135 0 149 2 200 26 68 33 158 98 166 122 3 9 12 17 20 17 8 0 14 5 14 11 0 6
13 29 28 52 33 50 48 82 73 161 26 80 28 413 3 497 -33 110 -69 174 -142 246
-73 72 -160 114 -266 128 -27 3 -53 8 -58 11 -4 3 -8 1 -8 -3 0 -9 -63 -11
-70 -2 -3 4 -16 2 -30 -3z"/>
</g>
</svg>
